<svg xmlns="http://www.w3.org/2000/svg" viewBox="0 0 293.775 293.671" fill="currentColor">
  <g>
    <path d="M61.218,149.736a12.207,12.207,0,0,1,12.207-12.248h22.259a12.209,12.209,0,0,1,12.207,12.208v60.542a12.19,12.19,0,0,1,10.857-4.676c6.076.043,11.35,0,11.35,0V136.137a12.207,12.207,0,0,1,12.207-12.208h22.259a12.209,12.209,0,0,1,12.207,12.208v69.47s5.16.7,11.35.7a12.2,12.2,0,0,0,10.857-6.612V122.538a12.207,12.207,0,0,1,12.207-12.208h22.259a12.209,12.209,0,0,1,12.207,12.208v59.1c16.857-12.863,33.4-30.089,33.4-30.089a146.826,146.826,0,1,0-120.6,142.1c.858.043,5.274.211,11.35.211a181.41,181.41,0,0,0,42.881-5.2c12.347-3.4,27.464-10.321,27.464-10.321V149.736a12.207,12.207,0,0,1,12.207-12.248h22.259a12.209,12.209,0,0,1,12.207,12.208v90.107s0,.006,0,.006c-.062.1-12.063,17.056-40.3,31.716a146.793,146.793,0,0,1-66.511,22.156c-.858.086-5.7.211-11.35.211" opacity="0.9"/>
  </g>
</svg>
